<?xml version="1.0" encoding="UTF-8" standalone="no"?>
<!DOCTYPE svg PUBLIC "-//W3C//DTD SVG 1.1//EN"
 "http://www.w3.org/Graphics/SVG/1.1/DTD/svg11.dtd">
<!-- Generated by graphviz version 2.26.3 (20100126.1600)
 -->
<!-- Title: G Pages: 1 -->
<svg width="448pt" height="352pt"
 viewBox="0.00 0.00 448.00 352.00" xmlns="http://www.w3.org/2000/svg" xmlns:xlink="http://www.w3.org/1999/xlink">
<g id="graph1" class="graph" transform="scale(1 1) rotate(0) translate(4 348)">
<title>G</title>
<polygon fill="white" stroke="white" points="-4,5 -4,-348 445,-348 445,5 -4,5"/>
<g id="graph2" class="cluster"><title>cluster_Global</title>
<polyline fill="none" stroke="gray" points="20,-8 420,-8 "/>
<path fill="none" stroke="gray" d="M420,-8C426,-8 432,-14 432,-20"/>
<polyline fill="none" stroke="gray" points="432,-20 432,-324 "/>
<path fill="none" stroke="gray" d="M432,-324C432,-330 426,-336 420,-336"/>
<polyline fill="none" stroke="gray" points="420,-336 20,-336 "/>
<path fill="none" stroke="gray" d="M20,-336C14,-336 8,-330 8,-324"/>
<polyline fill="none" stroke="gray" points="8,-324 8,-20 "/>
<path fill="none" stroke="gray" d="M8,-20C8,-14 14,-8 20,-8"/>
<text text-anchor="middle" x="220" y="-322.1" font-family="Times Roman,serif" font-size="11.00" fill="gray">Global</text>
</g>
<g id="graph3" class="cluster"><title>cluster_\phpWeFact</title>
<polyline fill="none" stroke="gray" points="28,-16 412,-16 "/>
<path fill="none" stroke="gray" d="M412,-16C418,-16 424,-22 424,-28"/>
<polyline fill="none" stroke="gray" points="424,-28 424,-294 "/>
<path fill="none" stroke="gray" d="M424,-294C424,-300 418,-306 412,-306"/>
<polyline fill="none" stroke="gray" points="412,-306 28,-306 "/>
<path fill="none" stroke="gray" d="M28,-306C22,-306 16,-300 16,-294"/>
<polyline fill="none" stroke="gray" points="16,-294 16,-28 "/>
<path fill="none" stroke="gray" d="M16,-28C16,-22 22,-16 28,-16"/>
<text text-anchor="middle" x="220" y="-292.1" font-family="Times Roman,serif" font-size="11.00" fill="gray">phpWeFact</text>
</g>
<!-- \\phpWeFact\\CreditInvoice -->
<g id="node3" class="node"><title>\\phpWeFact\\CreditInvoice</title>
<polygon fill="none" stroke="black" points="236,-60 150,-60 150,-24 236,-24 236,-60"/>
<text text-anchor="middle" x="193" y="-39.1" font-family="Times Roman,serif" font-size="11.00">CreditInvoice</text>
</g>
<!-- \\phpWeFact\\API -->
<g id="node9" class="node"><title>\\phpWeFact\\API</title>
<polygon fill="none" stroke="black" points="78,-168 24,-168 24,-132 78,-132 78,-168"/>
<text text-anchor="middle" x="51" y="-147.1" font-family="Times Roman,serif" font-size="11.00">API</text>
</g>
<!-- \\phpWeFact\\CreditInvoice&#45;&gt;\\phpWeFact\\API -->
<g id="edge4" class="edge"><title>\\phpWeFact\\CreditInvoice&#45;&gt;\\phpWeFact\\API</title>
<path fill="none" stroke="black" d="M163.072,-60.1151C158.629,-62.9982 154.152,-66.016 150,-69 125.276,-86.7709 98.6371,-108.741 79.2269,-125.315"/>
<polygon fill="none" stroke="black" points="76.9443,-122.662 71.6396,-131.833 81.5057,-127.971 76.9443,-122.662"/>
</g>
<!-- \\phpWeFact\\Invoice -->
<g id="node4" class="node"><title>\\phpWeFact\\Invoice</title>
<polygon fill="none" stroke="black" points="220,-114 166,-114 166,-78 220,-78 220,-114"/>
<text text-anchor="middle" x="193" y="-93.1" font-family="Times Roman,serif" font-size="11.00">Invoice</text>
</g>
<!-- \\phpWeFact\\Invoice&#45;&gt;\\phpWeFact\\API -->
<g id="edge6" class="edge"><title>\\phpWeFact\\Invoice&#45;&gt;\\phpWeFact\\API</title>
<path fill="none" stroke="black" d="M165.957,-106.284C143.891,-114.675 112.486,-126.618 88.0751,-135.901"/>
<polygon fill="none" stroke="black" points="86.5292,-132.744 78.4263,-139.57 89.0174,-139.287 86.5292,-132.744"/>
</g>
<!-- \\phpWeFact\\Debtor -->
<g id="node5" class="node"><title>\\phpWeFact\\Debtor</title>
<polygon fill="none" stroke="black" points="220,-276 166,-276 166,-240 220,-240 220,-276"/>
<text text-anchor="middle" x="193" y="-255.1" font-family="Times Roman,serif" font-size="11.00">Debtor</text>
</g>
<!-- \\phpWeFact\\Debtor&#45;&gt;\\phpWeFact\\API -->
<g id="edge8" class="edge"><title>\\phpWeFact\\Debtor&#45;&gt;\\phpWeFact\\API</title>
<path fill="none" stroke="black" d="M165.822,-241.656C160.496,-238.252 155.01,-234.601 150,-231 125.276,-213.229 98.6371,-191.259 79.2269,-174.685"/>
<polygon fill="none" stroke="black" points="81.5057,-172.029 71.6396,-168.167 76.9443,-177.338 81.5057,-172.029"/>
</g>
<!-- \\phpWeFact\\Creditor -->
<g id="node6" class="node"><title>\\phpWeFact\\Creditor</title>
<polygon fill="none" stroke="black" points="223,-222 163,-222 163,-186 223,-186 223,-222"/>
<text text-anchor="middle" x="193" y="-201.1" font-family="Times Roman,serif" font-size="11.00">Creditor</text>
</g>
<!-- \\phpWeFact\\Creditor&#45;&gt;\\phpWeFact\\API -->
<g id="edge10" class="edge"><title>\\phpWeFact\\Creditor&#45;&gt;\\phpWeFact\\API</title>
<path fill="none" stroke="black" d="M162.885,-192.548C140.945,-184.204 111.103,-172.856 87.7561,-163.978"/>
<polygon fill="none" stroke="black" points="88.7811,-160.623 78.19,-160.34 86.2929,-167.166 88.7811,-160.623"/>
</g>
<!-- \\phpWeFact\\ListParam -->
<g id="node7" class="node"><title>\\phpWeFact\\ListParam</title>
<polygon fill="none" stroke="black" points="228,-168 158,-168 158,-132 228,-132 228,-168"/>
<text text-anchor="middle" x="193" y="-147.1" font-family="Times Roman,serif" font-size="11.00">ListParam</text>
</g>
<!-- \\phpWeFact\\ListParam&#45;&gt;\\phpWeFact\\API -->
<g id="edge12" class="edge"><title>\\phpWeFact\\ListParam&#45;&gt;\\phpWeFact\\API</title>
<path fill="none" stroke="black" d="M157.167,-150C136.222,-150 109.814,-150 88.5761,-150"/>
<polygon fill="none" stroke="black" points="88.3055,-146.5 78.3055,-150 88.3054,-153.5 88.3055,-146.5"/>
</g>
<!-- \\phpWeFact\\InvoiceLine -->
<g id="node8" class="node"><title>\\phpWeFact\\InvoiceLine</title>
<polygon fill="none" stroke="black" points="399,-114 325,-114 325,-78 399,-78 399,-114"/>
<text text-anchor="middle" x="362" y="-93.1" font-family="Times Roman,serif" font-size="11.00">InvoiceLine</text>
</g>
<!-- \\phpWeFact\\InvoiceLine&#45;&gt;\\phpWeFact\\Invoice -->
<g id="edge14" class="edge"><title>\\phpWeFact\\InvoiceLine&#45;&gt;\\phpWeFact\\Invoice</title>
<path fill="none" stroke="black" d="M324.493,-96C296.469,-96 258.334,-96 230.348,-96"/>
<polygon fill="none" stroke="black" points="230.162,-92.5001 220.162,-96 230.162,-99.5001 230.162,-92.5001"/>
</g>
<!-- \\phpWeFact\\CreditInvoiceLine -->
<g id="node10" class="node"><title>\\phpWeFact\\CreditInvoiceLine</title>
<polygon fill="none" stroke="black" points="415,-60 309,-60 309,-24 415,-24 415,-60"/>
<text text-anchor="middle" x="362" y="-39.1" font-family="Times Roman,serif" font-size="11.00">CreditInvoiceLine</text>
</g>
<!-- \\phpWeFact\\CreditInvoiceLine&#45;&gt;\\phpWeFact\\CreditInvoice -->
<g id="edge16" class="edge"><title>\\phpWeFact\\CreditInvoiceLine&#45;&gt;\\phpWeFact\\CreditInvoice</title>
<path fill="none" stroke="black" d="M308.063,-42C288.238,-42 265.819,-42 246.071,-42"/>
<polygon fill="none" stroke="black" points="246.016,-38.5001 236.016,-42 246.016,-45.5001 246.016,-38.5001"/>
</g>
</g>
</svg>
