<?xml version="1.0" encoding="UTF-8" standalone="no"?>
<!DOCTYPE svg PUBLIC "-//W3C//DTD SVG 1.1//EN"
 "http://www.w3.org/Graphics/SVG/1.1/DTD/svg11.dtd">
<!-- Generated by graphviz version 2.26.3 (20100126.1600)
 -->
<!-- Title: G Pages: 1 -->
<svg width="448pt" height="406pt"
 viewBox="0.00 0.00 448.00 406.00" xmlns="http://www.w3.org/2000/svg" xmlns:xlink="http://www.w3.org/1999/xlink">
<g id="graph1" class="graph" transform="scale(1 1) rotate(0) translate(4 402)">
<title>G</title>
<polygon fill="white" stroke="white" points="-4,5 -4,-402 445,-402 445,5 -4,5"/>
<g id="graph2" class="cluster"><title>cluster_Global</title>
<polyline fill="none" stroke="gray" points="20,-8 420,-8 "/>
<path fill="none" stroke="gray" d="M420,-8C426,-8 432,-14 432,-20"/>
<polyline fill="none" stroke="gray" points="432,-20 432,-378 "/>
<path fill="none" stroke="gray" d="M432,-378C432,-384 426,-390 420,-390"/>
<polyline fill="none" stroke="gray" points="420,-390 20,-390 "/>
<path fill="none" stroke="gray" d="M20,-390C14,-390 8,-384 8,-378"/>
<polyline fill="none" stroke="gray" points="8,-378 8,-20 "/>
<path fill="none" stroke="gray" d="M8,-20C8,-14 14,-8 20,-8"/>
<text text-anchor="middle" x="220" y="-376.1" font-family="Times Roman,serif" font-size="11.00" fill="gray">Global</text>
</g>
<g id="graph3" class="cluster"><title>cluster_\phpWeFact</title>
<polyline fill="none" stroke="gray" points="28,-16 412,-16 "/>
<path fill="none" stroke="gray" d="M412,-16C418,-16 424,-22 424,-28"/>
<polyline fill="none" stroke="gray" points="424,-28 424,-348 "/>
<path fill="none" stroke="gray" d="M424,-348C424,-354 418,-360 412,-360"/>
<polyline fill="none" stroke="gray" points="412,-360 28,-360 "/>
<path fill="none" stroke="gray" d="M28,-360C22,-360 16,-354 16,-348"/>
<polyline fill="none" stroke="gray" points="16,-348 16,-28 "/>
<path fill="none" stroke="gray" d="M16,-28C16,-22 22,-16 28,-16"/>
<text text-anchor="middle" x="220" y="-346.1" font-family="Times Roman,serif" font-size="11.00" fill="gray">phpWeFact</text>
</g>
<!-- \\phpWeFact\\CreditInvoice -->
<g id="node3" class="node"><title>\\phpWeFact\\CreditInvoice</title>
<polygon fill="none" stroke="black" points="236,-114 150,-114 150,-78 236,-78 236,-114"/>
<text text-anchor="middle" x="193" y="-93.1" font-family="Times Roman,serif" font-size="11.00">CreditInvoice</text>
</g>
<!-- \\phpWeFact\\API -->
<g id="node9" class="node"><title>\\phpWeFact\\API</title>
<polygon fill="none" stroke="black" points="78,-195 24,-195 24,-159 78,-159 78,-195"/>
<text text-anchor="middle" x="51" y="-174.1" font-family="Times Roman,serif" font-size="11.00">API</text>
</g>
<!-- \\phpWeFact\\CreditInvoice&#45;&gt;\\phpWeFact\\API -->
<g id="edge4" class="edge"><title>\\phpWeFact\\CreditInvoice&#45;&gt;\\phpWeFact\\API</title>
<path fill="none" stroke="black" d="M161.132,-114.178C139.187,-126.696 109.989,-143.351 87.1705,-156.368"/>
<polygon fill="none" stroke="black" points="85.4047,-153.345 78.4526,-161.34 88.8731,-159.426 85.4047,-153.345"/>
</g>
<!-- \\phpWeFact\\Invoice -->
<g id="node4" class="node"><title>\\phpWeFact\\Invoice</title>
<polygon fill="none" stroke="black" points="220,-168 166,-168 166,-132 220,-132 220,-168"/>
<text text-anchor="middle" x="193" y="-147.1" font-family="Times Roman,serif" font-size="11.00">Invoice</text>
</g>
<!-- \\phpWeFact\\Invoice&#45;&gt;\\phpWeFact\\API -->
<g id="edge6" class="edge"><title>\\phpWeFact\\Invoice&#45;&gt;\\phpWeFact\\API</title>
<path fill="none" stroke="black" d="M165.957,-155.142C143.989,-159.319 112.765,-165.256 88.4009,-169.889"/>
<polygon fill="none" stroke="black" points="87.5965,-166.479 78.4263,-171.785 88.9041,-173.356 87.5965,-166.479"/>
</g>
<!-- \\phpWeFact\\Debtor -->
<g id="node5" class="node"><title>\\phpWeFact\\Debtor</title>
<polygon fill="none" stroke="black" points="220,-330 166,-330 166,-294 220,-294 220,-330"/>
<text text-anchor="middle" x="193" y="-309.1" font-family="Times Roman,serif" font-size="11.00">Debtor</text>
</g>
<!-- \\phpWeFact\\Debtor&#45;&gt;\\phpWeFact\\API -->
<g id="edge8" class="edge"><title>\\phpWeFact\\Debtor&#45;&gt;\\phpWeFact\\API</title>
<path fill="none" stroke="black" d="M165.847,-296.503C160.41,-292.977 154.876,-289.063 150,-285 120.068,-260.055 90.5088,-226.292 71.5943,-203.196"/>
<polygon fill="none" stroke="black" points="74.1387,-200.777 65.1265,-195.206 68.6978,-205.181 74.1387,-200.777"/>
</g>
<!-- \\phpWeFact\\Creditor -->
<g id="node6" class="node"><title>\\phpWeFact\\Creditor</title>
<polygon fill="none" stroke="black" points="223,-276 163,-276 163,-240 223,-240 223,-276"/>
<text text-anchor="middle" x="193" y="-255.1" font-family="Times Roman,serif" font-size="11.00">Creditor</text>
</g>
<!-- \\phpWeFact\\Creditor&#45;&gt;\\phpWeFact\\API -->
<g id="edge10" class="edge"><title>\\phpWeFact\\Creditor&#45;&gt;\\phpWeFact\\API</title>
<path fill="none" stroke="black" d="M162.885,-240.822C140.749,-228.195 110.569,-210.98 87.1323,-197.611"/>
<polygon fill="none" stroke="black" points="88.6104,-194.424 78.19,-192.51 85.142,-200.505 88.6104,-194.424"/>
</g>
<!-- \\phpWeFact\\ListParam -->
<g id="node7" class="node"><title>\\phpWeFact\\ListParam</title>
<polygon fill="none" stroke="black" points="228,-222 158,-222 158,-186 228,-186 228,-222"/>
<text text-anchor="middle" x="193" y="-201.1" font-family="Times Roman,serif" font-size="11.00">ListParam</text>
</g>
<!-- \\phpWeFact\\ListParam&#45;&gt;\\phpWeFact\\API -->
<g id="edge12" class="edge"><title>\\phpWeFact\\ListParam&#45;&gt;\\phpWeFact\\API</title>
<path fill="none" stroke="black" d="M157.167,-197.187C136.127,-193.186 109.573,-188.137 88.2854,-184.089"/>
<polygon fill="none" stroke="black" points="88.7833,-180.622 78.3055,-182.192 87.4757,-187.498 88.7833,-180.622"/>
</g>
<!-- \\phpWeFact\\InvoiceLine -->
<g id="node8" class="node"><title>\\phpWeFact\\InvoiceLine</title>
<polygon fill="none" stroke="black" points="399,-168 325,-168 325,-132 399,-132 399,-168"/>
<text text-anchor="middle" x="362" y="-147.1" font-family="Times Roman,serif" font-size="11.00">InvoiceLine</text>
</g>
<!-- \\phpWeFact\\InvoiceLine&#45;&gt;\\phpWeFact\\Invoice -->
<g id="edge14" class="edge"><title>\\phpWeFact\\InvoiceLine&#45;&gt;\\phpWeFact\\Invoice</title>
<path fill="none" stroke="black" d="M324.493,-150C296.469,-150 258.334,-150 230.348,-150"/>
<polygon fill="none" stroke="black" points="230.162,-146.5 220.162,-150 230.162,-153.5 230.162,-146.5"/>
</g>
<!-- \\phpWeFact\\CreditInvoiceLine -->
<g id="node10" class="node"><title>\\phpWeFact\\CreditInvoiceLine</title>
<polygon fill="none" stroke="black" points="415,-114 309,-114 309,-78 415,-78 415,-114"/>
<text text-anchor="middle" x="362" y="-93.1" font-family="Times Roman,serif" font-size="11.00">CreditInvoiceLine</text>
</g>
<!-- \\phpWeFact\\CreditInvoiceLine&#45;&gt;\\phpWeFact\\CreditInvoice -->
<g id="edge16" class="edge"><title>\\phpWeFact\\CreditInvoiceLine&#45;&gt;\\phpWeFact\\CreditInvoice</title>
<path fill="none" stroke="black" d="M308.063,-96C288.238,-96 265.819,-96 246.071,-96"/>
<polygon fill="none" stroke="black" points="246.016,-92.5001 236.016,-96 246.016,-99.5001 246.016,-92.5001"/>
</g>
<!-- \\phpWeFact\\Product -->
<g id="node11" class="node"><title>\\phpWeFact\\Product</title>
<polygon fill="none" stroke="black" points="222,-60 164,-60 164,-24 222,-24 222,-60"/>
<text text-anchor="middle" x="193" y="-39.1" font-family="Times Roman,serif" font-size="11.00">Product</text>
</g>
<!-- \\phpWeFact\\Product&#45;&gt;\\phpWeFact\\API -->
<g id="edge18" class="edge"><title>\\phpWeFact\\Product&#45;&gt;\\phpWeFact\\API</title>
<path fill="none" stroke="black" d="M163.124,-59.2913C158.584,-62.332 154.063,-65.614 150,-69 120.068,-93.9452 90.5088,-127.708 71.5943,-150.804"/>
<polygon fill="none" stroke="black" points="68.6978,-148.819 65.1265,-158.794 74.1387,-153.223 68.6978,-148.819"/>
</g>
</g>
</svg>
